<svg xmlns="http://www.w3.org/2000/svg" version="1.1" width="128px" height="128px" style="shape-rendering:geometricPrecision; text-rendering:geometricPrecision; image-rendering:optimizeQuality; fill-rule:evenodd; clip-rule:evenodd" xmlns:xlink="http://www.w3.org/1999/xlink">
<g><path fill="#ffffff" fill-opacity="0.271" d="M 44.94,114.4 c 0.83,-0.33 1.69,-0.48 2.58,-0.44 c 9.3,0.09 18.61,0.13 27.91,0.12 c 0.44,0.18 0.6,0.5 0.5,0.95 c -8.81,-0.02 -17.62,-0.02 -26.43,-0.02 c -1.55,-0.03 -3.07,-0.23 -4.56,-0.61 Z" data-index="0"></path></g>
<g><path fill="#ffffff" fill-opacity="0.314" d="M 37.71,80.94 c 0.1,7.86 0.21,15.73 0.34,23.61 c 0.05,0.87 -0.09,1.71 -0.43,2.51 c -0.27,-1.84 -0.49,-3.69 -0.67,-5.56 c 0.02,-5 0.02,-10 0.01,-15 c 0.06,-1.89 0.31,-3.74 0.75,-5.56 Z" data-index="1"></path></g>
<g><path fill="#ffffff" fill-opacity="0.125" d="M 48.82,9.48 c 0.58,-0.13 0.92,0.11 1.01,0.69 c -0.34,-0.23 -0.68,-0.46 -1.01,-0.69 Z M 19.75,16.76 c -0.02,0.62 -0.35,0.96 -0.97,1.03 c 0.3,-0.37 0.63,-0.71 0.97,-1.03 Z M 51.28,18.7 c 0.32,0.37 0.63,0.74 0.91,1.13 c -0.62,-0.11 -0.92,-0.49 -0.91,-1.13 Z M 16.46,20.8 c 0.18,0.56 0,0.93 -0.55,1.12 c 0.17,-0.38 0.35,-0.76 0.55,-1.12 Z M 44.81,23.2 c 0.61,0.06 0.86,0.39 0.76,0.99 c -0.25,-0.33 -0.5,-0.66 -0.76,-0.99 Z M 45.57,39.81 c 0.1,0.6 -0.15,0.93 -0.75,0.99 c 0.25,-0.33 0.5,-0.66 0.75,-0.99 Z M 48.07,54.1 c -0.18,0.37 -0.35,0.74 -0.52,1.12 c -0.34,-0.64 -0.17,-1.01 0.52,-1.12 Z M 77.8,55.79 c -0.09,0.63 -0.45,0.93 -1.09,0.92 c 0.35,-0.32 0.72,-0.62 1.09,-0.92 Z M 106.2,55.79 c 0.37,0.3 0.74,0.6 1.09,0.92 c -0.64,0.01 -1,-0.29 -1.09,-0.92 Z M 75.71,57.71 c 0.01,0.64 -0.29,1 -0.92,1.09 c 0.3,-0.37 0.6,-0.74 0.92,-1.09 Z M 108.29,57.71 c 0.32,0.35 0.62,0.72 0.92,1.09 c -0.63,-0.09 -0.93,-0.45 -0.92,-1.09 Z M 39.22,67.21 c -0.31,0.37 -0.62,0.73 -0.94,1.09 c 0,-0.64 0.31,-1 0.94,-1.09 Z M 36.2,71.19 c -0.24,0.33 -0.47,0.67 -0.69,1.02 c -0.14,-0.59 0.09,-0.93 0.69,-1.02 Z M 41.72,72.7 c 0.01,0.64 -0.3,1.01 -0.93,1.11 c 0.3,-0.38 0.61,-0.75 0.93,-1.11 Z M 83.91,78.08 c 0.58,0.21 0.83,0.62 0.77,1.24 c -0.34,-0.36 -0.59,-0.77 -0.77,-1.24 Z M 100.07,78.06 c -0.16,0.48 -0.41,0.9 -0.76,1.26 c -0.05,-0.61 0.2,-1.03 0.76,-1.26 Z M 74.54,100.8 c 0.2,0.35 0.41,0.7 0.63,1.04 c -0.59,-0.11 -0.8,-0.46 -0.63,-1.04 Z M 86.8,109.2 c 0.62,0.09 0.92,0.45 0.91,1.08 c -0.32,-0.35 -0.62,-0.71 -0.91,-1.08 Z M 97.22,109.2 c -0.3,0.37 -0.61,0.73 -0.93,1.08 c 0,-0.63 0.31,-0.99 0.93,-1.08 Z" data-index="2"></path></g>
<g><path fill="#ffffff" fill-opacity="0.992" stroke="#ffffff" stroke-width="0.5" stroke-opacity="0.992" d="M 48.82,9.48 c 0.33,0.23 0.67,0.46 1.01,0.69 c 23.18,16.41 5.63,46.15 -8.11,62.53 c -0.32,0.36 -0.63,0.73 -0.93,1.11 c -1.44,2.2 -2.47,4.57 -3.08,7.13 c -0.44,1.82 -0.69,3.67 -0.75,5.56 c 0.01,5 0.01,10 -0.01,15 c 0.18,1.87 0.4,3.72 0.67,5.56 c 1.37,3.51 3.8,5.96 7.32,7.34 c 1.49,0.38 3.01,0.58 4.56,0.61 c 8.81,0 17.62,0 26.43,0.02 c 1.89,0.93 1.78,4.41 -0.49,4.85 c -15.23,0.29 -42.28,5.64 -43.45,-16.38 c 0.62,-9.69 -2.06,-22.81 3.52,-31.29 c 0.22,-0.35 0.45,-0.69 0.69,-1.02 c 0.7,-0.96 1.39,-1.92 2.08,-2.89 c 0.32,-0.36 0.63,-0.72 0.94,-1.09 c 3.03,-3.82 5.81,-7.81 8.33,-11.99 c 0.17,-0.38 0.34,-0.75 0.52,-1.12 c 5.81,-10.53 11.94,-23.03 4.12,-34.27 c -0.28,-0.39 -0.59,-0.76 -0.91,-1.13 c -8.09,-9.86 -22.24,-10.6 -31.53,-1.94 c -0.34,0.32 -0.67,0.66 -0.97,1.03 c -0.83,0.95 -1.61,1.96 -2.32,3.01 c -0.2,0.36 -0.38,0.74 -0.55,1.12 c -7.99,14.81 6.14,34.41 14.75,46.03 c 0.69,1.67 0.25,2.94 -1.31,3.79 c -5.25,1.76 -19.14,-25.95 -20.05,-31.3 c -7.51,-23.84 18.16,-44.17 39.52,-30.96 Z M 44.81,23.2 c 0.26,0.33 0.51,0.66 0.76,0.99 c 3.23,5.21 3.23,10.41 0,15.62 c -0.25,0.33 -0.5,0.66 -0.75,0.99 c -9.53,10.44 -27.11,1.81 -22.78,-13.21 c 3.3,-9.9 16.02,-11.85 22.77,-4.39 Z M 26.85,32 c 0.12,10.59 14.78,10.8 15.78,0.45 c -0.04,-11.17 -15.65,-11.42 -15.78,-0.45 Z M 75.17,101.84 c -0.22,-0.34 -0.43,-0.69 -0.63,-1.04 c -4.1,-6.46 -7.19,-13.37 -9.28,-20.72 c -9.03,-42.57 57.35,-47.44 54.06,-3.58 c -1.19,11.88 -15.74,37.69 -25.97,43.29 c -6.28,1.85 -15.2,-13.55 -18.18,-17.95 Z M 77.8,55.79 c -0.37,0.3 -0.74,0.6 -1.09,0.92 c -0.32,0.34 -0.66,0.68 -1,1 c -0.32,0.35 -0.62,0.72 -0.92,1.09 c -12.68,15.21 2.52,37.52 12.01,50.4 c 0.29,0.37 0.59,0.73 0.91,1.08 c 3.94,4.67 4.52,4.85 8.58,0 c 0.32,-0.35 0.63,-0.71 0.93,-1.08 c 9.49,-12.99 24.63,-35.04 11.99,-50.4 c -0.3,-0.37 -0.6,-0.74 -0.92,-1.09 c -0.34,-0.32 -0.68,-0.66 -1,-1 c -0.35,-0.32 -0.72,-0.62 -1.09,-0.92 c -8.35,-6.78 -20.04,-6.66 -28.4,0 Z M 77.24,73.04 c 1.29,-19.45 29.03,-18.89 29.47,0.45 c -1.11,20.01 -29.33,18.82 -29.47,-0.45 Z M 83.91,78.08 c 0.18,0.47 0.43,0.88 0.77,1.24 c 3.73,4.48 10.88,4.43 14.63,0 c 0.35,-0.36 0.6,-0.78 0.76,-1.26 c 8.61,-17.07 -23.89,-19.54 -16.16,0.02 Z" data-index="3" style="opacity: 1; visibility: visible; fill: rgb(0, 0, 0);"></path></g>
</svg>